<?xml version="1.0" encoding="UTF-8"?>
<svg xmlns="http://www.w3.org/2000/svg" width="640" height="384" viewBox="0 0 640 384">
  <rect width="100%" height="100%" fill="#fff8f0" rx="12"/>
  <text x="320" y="28" text-anchor="middle" font-size="18" font-weight="bold" fill="#4a3b2a">泛型函数：一次编写，多处复用</text>
  <defs>
    <marker id="arrow" markerWidth="10" markerHeight="10" refX="9" refY="3" orient="auto" markerUnits="strokeWidth">
      <path d="M0,0 L0,6 L9,3 z" fill="#5c4b37"/>
    </marker>
  </defs><rect x="60" y="80" width="520" height="244" fill="#fff3e0" stroke="#d4a76a" stroke-width="2" rx="8"/><text x="320" y="115" font-size="16" font-weight="bold" fill="#3d3229" text-anchor="middle">fn largest&lt;T: PartialOrd&gt;(list: &amp;[T]) -&gt; &amp;T</text><rect x="90" y="155" width="130" height="70" fill="#e8f5e9" stroke="#66bb6a" stroke-width="2" rx="8"/><text x="155" y="180" font-size="14" font-weight="normal" fill="#3d3229" text-anchor="middle">[i32]</text><text x="155" y="205" font-size="12" font-weight="normal" fill="#666" text-anchor="middle">i32 切片</text><line x1="220" y1="190" x2="270" y2="190" stroke="#5c4b37" stroke-width="2" marker-end="url(#arrow)"/><rect x="420" y="155" width="130" height="70" fill="#e3f2fd" stroke="#42a5f5" stroke-width="2" rx="8"/><text x="485" y="180" font-size="14" font-weight="normal" fill="#3d3229" text-anchor="middle">[char]</text><text x="485" y="205" font-size="12" font-weight="normal" fill="#666" text-anchor="middle">字符切片</text><line x1="420" y1="190" x2="370" y2="190" stroke="#5c4b37" stroke-width="2" marker-end="url(#arrow)"/><rect x="270" y="150" width="100" height="80" fill="#ffe0b2" stroke="#fb8c00" stroke-width="2" rx="8"/><text x="320" y="190" font-size="14" font-weight="bold" fill="#3d3229" text-anchor="middle">largest</text><text x="320" y="215" font-size="12" font-weight="normal" fill="#3d3229" text-anchor="middle">&lt;T&gt;</text><line x1="320" y1="230" x2="320" y2="270" stroke="#5c4b37" stroke-width="2" marker-end="url(#arrow)"/><text x="320" y="306" font-size="14" font-weight="normal" fill="#5c4b37" text-anchor="middle">返回 &amp;T（引用）</text><text x="320" y="60" font-size="15" font-weight="normal" fill="#5c4b37" text-anchor="middle">一个泛型函数同时处理多种类型</text>
</svg>