<?xml version="1.0" encoding="UTF-8"?>
<svg xmlns="http://www.w3.org/2000/svg" width="720" height="350" viewBox="0 0 720 350">
  <defs>
    <style>
      .bg { fill: #fff8f0; }
      .card { fill: #ffffff; stroke: #e0d6cc; stroke-width: 2; }
      .title { font: bold 22px system-ui, -apple-system, sans-serif; fill: #1a1a1a; }
      .text { font: 15px system-ui, -apple-system, sans-serif; fill: #2a2a2a; }
      .code { font: 14px "SF Mono", Menlo, monospace; fill: #3a2a1a; }
      .label { font: 13px system-ui, -apple-system, sans-serif; fill: #5a5a5a; }
      .arrow { stroke: #7a6a5a; stroke-width: 2; fill: none; marker-end: url(#arrowhead); }
      .highlight { fill: #ffeacc; stroke: #ffaa55; stroke-width: 2; }
      .box { fill: #e8f4ff; stroke: #3399ff; stroke-width: 2; }
      .box2 { fill: #f0ffe8; stroke: #66bb33; stroke-width: 2; }
      .box3 { fill: #fff0f5; stroke: #dd5599; stroke-width: 2; }
    </style>
    <marker id="arrowhead" markerWidth="10" markerHeight="7" refX="9" refY="3.5" orient="auto">
      <polygon points="0 0, 10 3.5, 0 7" fill="#7a6a5a"/>
    </marker>
  </defs>
  <rect width="720" height="350" class="bg"/>
  <rect x="16" y="16" width="688" height="318" rx="12" class="card"/>
  <text x="360" y="50" text-anchor="middle" class="title">Result 的三种显式处理方式</text>
  <rect x="170" y="80" width="380" height="46" rx="8" class="box"/>
  <text x="360" y="109" text-anchor="middle" class="code">fn read() -&gt; Result&lt;String, io::Error&gt;</text>
  <rect x="35" y="200" width="190" height="80" rx="8" class="box2"/>
  <text x="130" y="230" text-anchor="middle" class="code">match</text>
  <text x="130" y="256" text-anchor="middle" class="label">就地处理，恢复或降级</text>
  <rect x="265" y="200" width="190" height="80" rx="8" class="box2"/>
  <text x="360" y="230" text-anchor="middle" class="code">?</text>
  <text x="360" y="256" text-anchor="middle" class="label">向上传播给调用方</text>
  <rect x="495" y="200" width="190" height="80" rx="8" class="box2"/>
  <text x="590" y="230" text-anchor="middle" class="code">unwrap</text>
  <text x="590" y="256" text-anchor="middle" class="label">确定安全才解包（会 panic）</text>
  <line x1="360" y1="126" x2="130" y2="196" class="arrow"/>
  <line x1="360" y1="126" x2="360" y2="196" class="arrow"/>
  <line x1="360" y1="126" x2="590" y2="196" class="arrow"/>
  <text x="360" y="322" text-anchor="middle" class="label">没有隐式异常，每条错误路径都必须显式写出</text>
</svg>
