<?xml version="1.0" encoding="UTF-8"?>
<svg xmlns="http://www.w3.org/2000/svg" width="640" height="360" viewBox="0 0 640 360">
  <rect width="100%" height="100%" fill="#fff8f0" rx="12"/>
  <text x="320" y="28" text-anchor="middle" font-size="18" font-weight="bold" fill="#4a3b2a">错误处理进阶 anyhow / thiserror</text>
  <defs>
    <marker id="arrow" markerWidth="10" markerHeight="10" refX="9" refY="3" orient="auto" markerUnits="strokeWidth">
      <path d="M0,0 L0,6 L9,3 z" fill="#5c4b37"/>
    </marker>
  </defs>
  <rect x="40" y="55" width="560" height="250" fill="#fff3e0" stroke="#d4a76a" stroke-width="2" rx="8"/>
  <text x="320" y="85" font-size="14" font-weight="bold" fill="#3d3229" text-anchor="middle">错误处理分层</text>
  <rect x="70" y="110" width="180" height="75" fill="#e8f5e9" stroke="#66bb6a" stroke-width="2" rx="8"/>
  <text x="160" y="138" font-size="13" font-weight="bold" fill="#3d3229" text-anchor="middle">库代码 thiserror</text>
  <text x="160" y="158" font-size="12" fill="#666" text-anchor="middle">结构化错误类型</text>
  <text x="160" y="173" font-size="12" fill="#666" text-anchor="middle">#[derive(Error)]</text>
  <text x="160" y="188" font-size="12" fill="#666" text-anchor="middle">精确匹配错误变体</text>
  <line x1="250" y1="147" x2="300" y2="147" stroke="#5c4b37" stroke-width="2" marker-end="url(#arrow)"/>
  <rect x="260" y="130" width="140" height="50" fill="#fff3e0" stroke="#fb8c00" stroke-width="2" rx="8"/>
  <text x="330" y="152" font-size="12" fill="#5c4b37" text-anchor="middle">? 传播</text>
  <text x="330" y="170" font-size="12" fill="#5c4b37" text-anchor="middle">自动转换</text>
  <line x1="400" y1="147" x2="450" y2="147" stroke="#5c4b37" stroke-width="2" marker-end="url(#arrow)"/>
  <rect x="460" y="110" width="170" height="75" fill="#e3f2fd" stroke="#42a5f5" stroke-width="2" rx="8"/>
  <text x="545" y="138" font-size="13" font-weight="bold" fill="#3d3229" text-anchor="middle">应用代码 anyhow</text>
  <text x="545" y="158" font-size="12" fill="#666" text-anchor="middle">统一错误类型</text>
  <text x="545" y="173" font-size="12" fill="#666" text-anchor="middle">Context + 背景链</text>
  <text x="545" y="188" font-size="12" fill="#666" text-anchor="middle">.context("msg")?</text>
  <line x1="330" y1="180" x2="330" y2="215" stroke="#5c4b37" stroke-width="2" marker-end="url(#arrow)"/>
  <rect x="200" y="220" width="260" height="50" fill="#fce4ec" stroke="#ec407a" stroke-width="2" rx="8"/>
  <text x="330" y="243" font-size="13" font-weight="bold" fill="#3d3229" text-anchor="middle">用户看到的信息</text>
  <text x="330" y="263" font-size="12" fill="#666" text-anchor="middle">可读的错误链 + 上下文 + 原始错误</text>
  <text x="320" y="318" font-size="13" fill="#5c4b37" text-anchor="middle">thiserror 定义类型，anyhow 在应用中统一处理</text>
</svg>
