<?xml version="1.0" encoding="UTF-8"?>
<svg xmlns="http://www.w3.org/2000/svg" width="720" height="365" viewBox="0 0 720 365">
  <defs>
    <style>
      .bg { fill: #fff8f0; }
      .card { fill: #ffffff; stroke: #e0d6cc; stroke-width: 2; }
      .title { font: bold 22px system-ui, -apple-system, sans-serif; fill: #1a1a1a; }
      .text { font: 15px system-ui, -apple-system, sans-serif; fill: #2a2a2a; }
      .code { font: 14px "SF Mono", Menlo, monospace; fill: #3a2a1a; }
      .label { font: 13px system-ui, -apple-system, sans-serif; fill: #5a5a5a; }
      .arrow { stroke: #7a6a5a; stroke-width: 2; fill: none; marker-end: url(#arrowhead); }
      .highlight { fill: #ffeacc; stroke: #ffaa55; stroke-width: 2; }
      .box { fill: #e8f4ff; stroke: #3399ff; stroke-width: 2; }
      .box2 { fill: #f0ffe8; stroke: #66bb33; stroke-width: 2; }
      .box3 { fill: #fff0f5; stroke: #dd5599; stroke-width: 2; }
    </style>
    <marker id="arrowhead" markerWidth="10" markerHeight="7" refX="9" refY="3.5" orient="auto">
      <polygon points="0 0, 10 3.5, 0 7" fill="#7a6a5a"/>
    </marker>
  </defs>
  <rect width="720" height="365" class="bg"/>
  <rect x="16" y="16" width="688" height="333" rx="12" class="card"/>
  <text x="360" y="50" text-anchor="middle" class="title">错误发现得越早，代价越小</text>
  <text x="130" y="95" text-anchor="middle" class="label">写代码</text>
  <text x="290" y="95" text-anchor="middle" class="label">编译</text>
  <text x="450" y="95" text-anchor="middle" class="label">运行</text>
  <text x="610" y="95" text-anchor="middle" class="label">线上</text>
  <rect x="45" y="140" width="110" height="40" rx="8" class="box3"/>
  <text x="100" y="166" text-anchor="middle" class="text">运行时检查</text>
  <line x1="170" y1="160" x2="605" y2="160" class="arrow"/>
  <text x="620" y="166" font-size="18">❌</text>
  <text x="170" y="195" class="text">❌ 发现太晚：bug 可能已在线上造成损失，每次检查还消耗 CPU</text>
  <rect x="45" y="230" width="110" height="40" rx="8" class="box2"/>
  <text x="100" y="256" text-anchor="middle" class="text">编译期检查</text>
  <line x1="170" y1="250" x2="285" y2="250" class="arrow"/>
  <text x="295" y="257" font-size="18">✅</text>
  <line x1="325" y1="250" x2="650" y2="250" stroke="#c9c0b8" stroke-width="2" stroke-dasharray="6 4"/>
  <text x="420" y="240" class="label">无需经历后续阶段</text>
  <text x="170" y="285" class="text">✅ 编译即拦截：精确错误位置 + 修复建议，零运行时开销</text>
  <text x="360" y="325" text-anchor="middle" class="label">拦截越早，损失越小，运行时越轻快</text>
</svg>
