<?xml version="1.0" encoding="UTF-8"?>
<svg xmlns="http://www.w3.org/2000/svg" width="720" height="402" viewBox="0 0 720 402">
  <defs>
    <style>
      .bg { fill: #fff8f0; }
      .card { fill: #ffffff; stroke: #e0d6cc; stroke-width: 2; }
      .title { font: bold 22px system-ui, -apple-system, sans-serif; fill: #1a1a1a; }
      .text { font: 15px system-ui, -apple-system, sans-serif; fill: #2a2a2a; }
      .code { font: 14px "SF Mono", Menlo, monospace; fill: #3a2a1a; }
      .label { font: 13px system-ui, -apple-system, sans-serif; fill: #5a5a5a; }
      .arrow { stroke: #7a6a5a; stroke-width: 2; fill: none; marker-end: url(#arrowhead); }
      .highlight { fill: #ffeacc; stroke: #ffaa55; stroke-width: 2; }
      .box { fill: #e8f4ff; stroke: #3399ff; stroke-width: 2; }
      .box2 { fill: #f0ffe8; stroke: #66bb33; stroke-width: 2; }
      .box3 { fill: #fff0f5; stroke: #dd5599; stroke-width: 2; }
    </style>
    <marker id="arrowhead" markerWidth="10" markerHeight="7" refX="9" refY="3.5" orient="auto">
      <polygon points="0 0, 10 3.5, 0 7" fill="#7a6a5a"/>
    </marker>
  </defs>
  <rect width="720" height="402" class="bg"/>
  <rect x="16" y="16" width="688" height="370" rx="12" class="card"/>
  <text x="360" y="50" text-anchor="middle" class="title">trait 契约：实现即获得能力</text>
  <!-- CONTENT -->
  <rect x="290" y="80" width="140" height="56" rx="8" class="box"/>
  <text x="360" y="106" text-anchor="middle" class="code">trait Flyable</text>
  <text x="360" y="126" text-anchor="middle" class="label">fn fly(&amp;self)</text>
  <rect x="100" y="200" width="110" height="40" rx="8" class="box2"/>
  <text x="155" y="225" text-anchor="middle" class="text">Bird</text>
  <rect x="510" y="200" width="110" height="40" rx="8" class="box2"/>
  <text x="565" y="225" text-anchor="middle" class="text">Plane</text>
  <rect x="220" y="290" width="280" height="44" rx="8" class="highlight"/>
  <text x="360" y="317" text-anchor="middle" class="code">fn let_it_fly(f: &amp;dyn Flyable)</text>
  <line x1="180" y1="200" x2="310" y2="140" class="arrow"/>
  <text x="225" y="165" class="label">impl</text>
  <line x1="540" y1="200" x2="410" y2="140" class="arrow"/>
  <text x="480" y="165" class="label">impl</text>
  <line x1="155" y1="240" x2="280" y2="290" class="arrow"/>
  <text x="165" y="275" class="label">&amp;dyn 传入</text>
  <line x1="565" y1="240" x2="440" y2="290" class="arrow"/>
  <text x="470" y="275" class="label">&amp;dyn 传入</text>
  <text x="360" y="362" text-anchor="middle" class="label">新类型只需 impl trait，调用方代码无需改动</text>
</svg>
