<?xml version="1.0" encoding="UTF-8"?>
<svg xmlns="http://www.w3.org/2000/svg" width="720" height="340" viewBox="0 0 720 340">
  <defs>
    <style>
      .bg { fill: #fff8f0; }
      .card { fill: #ffffff; stroke: #e0d6cc; stroke-width: 2; }
      .title { font: bold 22px system-ui, -apple-system, sans-serif; fill: #1a1a1a; }
      .text { font: 15px system-ui, -apple-system, sans-serif; fill: #2a2a2a; }
      .code { font: 14px "SF Mono", Menlo, monospace; fill: #3a2a1a; }
      .label { font: 13px system-ui, -apple-system, sans-serif; fill: #5a5a5a; }
      .arrow { stroke: #7a6a5a; stroke-width: 2; fill: none; marker-end: url(#arrowhead); }
      .highlight { fill: #ffeacc; stroke: #ffaa55; stroke-width: 2; }
      .box { fill: #e8f4ff; stroke: #3399ff; stroke-width: 2; }
      .box2 { fill: #f0ffe8; stroke: #66bb33; stroke-width: 2; }
      .box3 { fill: #fff0f5; stroke: #dd5599; stroke-width: 2; }
    </style>
    <marker id="arrowhead" markerWidth="10" markerHeight="7" refX="9" refY="3.5" orient="auto">
      <polygon points="0 0, 10 3.5, 0 7" fill="#7a6a5a"/>
    </marker>
  </defs>
  <rect width="720" height="340" class="bg"/>
  <rect x="16" y="16" width="688" height="308" rx="12" class="card"/>
  <text x="360" y="50" text-anchor="middle" class="title">借用规则：读可共享，写必独占</text>
  <text x="140" y="100" text-anchor="middle" class="text">不可变借用 &amp;T：多个共存 ✅</text>
  <text x="360" y="100" text-anchor="middle" class="text">可变借用 &amp;mut T：独占 ✅</text>
  <text x="580" y="100" text-anchor="middle" class="text">&amp;T 与 &amp;mut T 共存 ❌</text>
  <rect x="100" y="150" width="80" height="44" rx="8" class="box"/>
  <text x="140" y="178" text-anchor="middle" class="text">值</text>
  <text x="140" y="142" text-anchor="middle" font-size="18">✅</text>
  <text x="95" y="265" text-anchor="middle" class="code">&amp;a</text>
  <text x="140" y="265" text-anchor="middle" class="code">&amp;b</text>
  <text x="185" y="265" text-anchor="middle" class="code">&amp;c</text>
  <line x1="95" y1="252" x2="112" y2="196" class="arrow"/>
  <line x1="140" y1="252" x2="140" y2="196" class="arrow"/>
  <line x1="185" y1="252" x2="168" y2="196" class="arrow"/>
  <rect x="320" y="150" width="80" height="44" rx="8" class="highlight"/>
  <text x="360" y="178" text-anchor="middle" class="text">值</text>
  <text x="360" y="142" text-anchor="middle" font-size="18">✅</text>
  <text x="360" y="265" text-anchor="middle" class="code">&amp;mut x</text>
  <line x1="360" y1="252" x2="360" y2="196" class="arrow"/>
  <rect x="540" y="150" width="80" height="44" rx="8" class="box3"/>
  <text x="580" y="178" text-anchor="middle" class="text">值</text>
  <text x="580" y="142" text-anchor="middle" font-size="18">❌</text>
  <text x="552" y="265" text-anchor="middle" class="code">&amp;a</text>
  <text x="608" y="265" text-anchor="middle" class="code">&amp;mut b</text>
  <line x1="552" y1="252" x2="566" y2="196" class="arrow"/>
  <line x1="608" y1="252" x2="594" y2="196" class="arrow"/>
  <text x="360" y="300" text-anchor="middle" class="label">规则不满足 → 编译直接报错，而不是运行时崩溃</text>
</svg>
