<?xml version="1.0" encoding="UTF-8"?>
<svg xmlns="http://www.w3.org/2000/svg" width="720" height="360" viewBox="0 0 720 360">
  <defs>
    <style>
      .bg { fill: #fff8f0; }
      .card { fill: #ffffff; stroke: #e0d6cc; stroke-width: 2; }
      .title { font: bold 22px system-ui, -apple-system, sans-serif; fill: #1a1a1a; }
      .text { font: 15px system-ui, -apple-system, sans-serif; fill: #2a2a2a; }
      .code { font: 14px "SF Mono", Menlo, monospace; fill: #3a2a1a; }
      .label { font: 13px system-ui, -apple-system, sans-serif; fill: #5a5a5a; }
      .arrow { stroke: #7a6a5a; stroke-width: 2; fill: none; marker-end: url(#arrowhead); }
      .highlight { fill: #ffeacc; stroke: #ffaa55; stroke-width: 2; }
      .box { fill: #e8f4ff; stroke: #3399ff; stroke-width: 2; }
      .box2 { fill: #f0ffe8; stroke: #66bb33; stroke-width: 2; }
      .box3 { fill: #fff0f5; stroke: #dd5599; stroke-width: 2; }
    </style>
    <marker id="arrowhead" markerWidth="10" markerHeight="7" refX="9" refY="3.5" orient="auto">
      <polygon points="0 0, 10 3.5, 0 7" fill="#7a6a5a"/>
    </marker>
  </defs>
  <rect width="720" height="360" class="bg"/>
  <rect x="16" y="16" width="688" height="328" rx="12" class="card"/>
  <text x="360" y="50" text-anchor="middle" class="title">消息传递：所有权随消息转移</text>
  <text x="237" y="120" text-anchor="middle" class="code">tx.send(data)</text>
  <text x="477" y="120" text-anchor="middle" class="code">rx.recv()</text>
  <rect x="60" y="130" width="140" height="80" rx="8" class="box"/>
  <text x="130" y="168" text-anchor="middle" class="text">线程 A</text>
  <text x="130" y="192" text-anchor="middle" class="label">拥有数据</text>
  <rect x="280" y="155" width="160" height="40" rx="8" class="highlight"/>
  <text x="360" y="181" text-anchor="middle" class="code">channel</text>
  <rect x="520" y="130" width="140" height="80" rx="8" class="box2"/>
  <text x="590" y="168" text-anchor="middle" class="text">线程 B</text>
  <text x="590" y="192" text-anchor="middle" class="label">独占处理</text>
  <line x1="200" y1="175" x2="275" y2="175" class="arrow"/>
  <line x1="440" y1="175" x2="515" y2="175" class="arrow"/>
  <text x="130" y="240" text-anchor="middle" class="label">发送后不再持有 ❌</text>
  <text x="590" y="240" text-anchor="middle" class="label">接收后独占 ✅</text>
  <text x="360" y="320" text-anchor="middle" class="label">线程之间不共享数据，只通过 channel 转移所有权</text>
</svg>
